<svg xmlns="http://www.w3.org/2000/svg" width="32" height="32" viewBox="0 0 32 32" fill="none">
  <path d="M29.1625 1.20703H2.84002C1.93841 1.20703 1.20752 1.93793 1.20752 2.83953V29.162C1.20752 30.0636 1.93841 30.7945 2.84002 30.7945H29.1625C30.0641 30.7945 30.795 30.0636 30.795 29.162V2.83953C30.795 1.93793 30.0641 1.20703 29.1625 1.20703Z" fill="#3D5A98"/>
  <path d="M21.6198 30.7927V19.3352H25.4648L26.0398 14.8702H21.6198V12.0202C21.6198 10.7277 21.9798 9.84525 23.8323 9.84525H26.1973V5.84525C25.0521 5.7259 23.9012 5.66914 22.7498 5.67525C19.3448 5.67525 16.9998 7.75025 16.9998 11.5777V14.8702H13.1548V19.3352H16.9998V30.7927H21.6198Z" fill="white"/>
</svg>