<svg xmlns="http://www.w3.org/2000/svg" width="24" height="21" viewBox="0 0 24 21" fill="none">
  <path d="M21.6 0.900391H2.4C1.08 0.900391 0.012 1.98039 0.012 3.30039L0 17.7004C0 19.0204 1.08 20.1004 2.4 20.1004H21.6C22.92 20.1004 24 19.0204 24 17.7004V3.30039C24 1.98039 22.92 0.900391 21.6 0.900391ZM21.12 6.00039L12.636 11.3044C12.252 11.5444 11.748 11.5444 11.364 11.3044L2.88 6.00039C2.75967 5.93284 2.6543 5.84158 2.57027 5.73214C2.48623 5.62269 2.42527 5.49732 2.39109 5.36364C2.35691 5.22995 2.3502 5.09071 2.37139 4.95436C2.39257 4.81801 2.4412 4.68737 2.51434 4.57035C2.58747 4.45334 2.68359 4.35238 2.79687 4.27358C2.91015 4.19479 3.03825 4.1398 3.17339 4.11195C3.30854 4.08409 3.44794 4.08395 3.58315 4.11153C3.71835 4.13911 3.84656 4.19383 3.96 4.27239L12 9.30039L20.04 4.27239C20.1534 4.19383 20.2817 4.13911 20.4169 4.11153C20.5521 4.08395 20.6915 4.08409 20.8266 4.11195C20.9618 4.1398 21.0898 4.19479 21.2031 4.27358C21.3164 4.35238 21.4125 4.45334 21.4857 4.57035C21.5588 4.68737 21.6074 4.81801 21.6286 4.95436C21.6498 5.09071 21.6431 5.22995 21.6089 5.36364C21.5747 5.49732 21.5138 5.62269 21.4297 5.73214C21.3457 5.84158 21.2403 5.93284 21.12 6.00039Z" fill="#171717"/>
</svg>