<svg xmlns="http://www.w3.org/2000/svg" width="38" height="38" viewBox="0 0 38 38" fill="none">
  <g clip-path="url(#clip0_116_460)">
    <path d="M30.063 24.2605C29.9114 24.5858 29.6622 24.8558 29.3501 25.0329C29.0379 25.2101 28.6783 25.2855 28.3213 25.2489L20.9714 24.5476L15.7141 29.7296C15.458 29.9787 15.1318 30.1434 14.7793 30.2017C14.4269 30.2599 14.0651 30.2089 13.7424 30.0555C13.4198 29.9021 13.1519 29.6536 12.9746 29.3434C12.7974 29.0332 12.7193 28.6763 12.7509 28.3204L13.455 20.9646L8.27011 15.7132C8.02105 15.4571 7.85633 15.1309 7.79809 14.7785C7.73984 14.426 7.79086 14.0642 7.94428 13.7416C8.0977 13.419 8.34619 13.151 8.65634 12.9738C8.9665 12.7965 9.32348 12.7184 9.67932 12.75L17.0352 13.4541L22.2865 8.26925C22.5426 8.02019 22.8688 7.85547 23.2213 7.79722C23.5737 7.73898 23.9356 7.78999 24.2582 7.94342C24.5808 8.09684 24.8487 8.34532 25.026 8.65548C25.2032 8.96564 25.2813 9.32262 25.2498 9.67846L24.5456 17.0343L29.7305 22.2857C29.9843 22.5395 30.1526 22.866 30.2122 23.22C30.2718 23.5739 30.2197 23.9376 30.063 24.2605Z" fill="black"/>
  </g>
  <defs>
    <clipPath id="clip0_116_460">
      <rect width="28" height="28" fill="white" transform="translate(12.3696 0.34375) rotate(25.4342)"/>
    </clipPath>
  </defs>
</svg>